---
layout: anime

title: Karneval
image: https://i.imgur.com/Tzpn9dN.jpg
mal: 16035
anidb: 9186
r720: true
r1080: true

desc: >-
  This show is a good watch if you like super powers and action (and a vibrant color pallet). It's far from perfect though, and it doesn't have a satisfying ending. Though I still thoroughly enjoyed it.
  <br><br>
  This release consists of SCY's encodes. The english audio was provided by Etzimal, our resident lossless audio dealer. Subtitles are originally Anime-Koi's, modified by coldhell, and then modified by me. I went through and did a good check to make sure everything was synced nicely (had to make sure with ch's subs being OC), modified some signs along with the op/ed, and fixed up the chapters. I'd also like to point out I spent a good amount of time editing a font so it matched better.

status: Complete
groups: SCY, Etzimal, Anime-Koi, coldhell
vidinfo: .mkv, h264 10-bit

size720: ~1 GB / Episode @ 720p (1280x720) [SCY]
audio720a: English 6ch AAC (Main Dialogue) [Etzimal]
audio720b: Japanese 2ch AAC (Main Dialogue) [SCY]
audio720c: English 2ch AAC (Commentary Ep. 1 & 12) [Etzimal]

size1080: ~1.2 GB / Episode @ 1080p (1920x1080)
audio1080a: English 6ch FLAC (Main Dialogue) [Etzimal]
audio1080b: Japanese 2ch FLAC (Main Dialogue) [SCY]
audio1080c: English 2ch FLAC (Commentary Ep. 1 & 12) [Etzimal]

subtitle1: Signs/Songs (.ass) [(CyC & coldhell Modified) [Anime-Koi]
subtitle2: English Dialogue (.ass) [(CyC & coldhell Modified) [Anime-Koi]

nyaa720: https://nyaa.si/view/1067880
anidex720: https://anidex.info/torrent/176428
at720: https://animetosho.org/view/cyc-scy-karneval-bd-720p-hi10-x264-aac-dual-audio.n1067880
ant720: https://animetorrents.me/torrent-details.php?torid=37977
ab720: https://animebytes.tv/torrents.php?id=14526&torrentid=380405

nyaa1080: https://nyaa.si/view/1067881
at1080: https://animetosho.org/view/cyc-scy-karneval-bd-1080p-hi10-x264-flac-dual-audio.n1067881
ant1080: https://animetorrents.me/torrent-details.php?torid=37978
ab1080: https://animebytes.tv/torrents.php?id=14526&torrentid=380406

github: https://github.com/cyc-anime/Karneval
---
General
Unique ID                                : 234106023752322932973570443813183732250 (0xB01F2E1D0A08214EBF84996FA8B6BA1A)
Complete name                            : [CyC-SCY] Karneval 01 (BD 720p Hi10 x264 AAC) [Dual-Audio] [13EC3DDF].mkv
Format                                   : Matroska
Format version                           : Version 4 / Version 2
File size                                : 881 MiB
Duration                                 : 23 min 42 s
Overall bit rate                         : 5 193 kb/s
Movie name                               : Rainbow Colored Flower Fuse
Encoded date                             : UTC 2018-08-14 22:27:01
Writing application                      : mkvmerge v9.7.1 ('Pandemonium') 64bit
Writing library                          : libebml v1.3.4 + libmatroska v1.4.5
Attachments                              : rounded-mgenplus-1pp-regular.ttf / Howie_s_Funhouse.ttf / JEEPNEY.TTF / TIMESS_.ttf / Vivaldii.TTF

Video
ID                                       : 1
Format                                   : AVC
Format/Info                              : Advanced Video Codec
Format profile                           : High 10@L5
Format settings                          : CABAC / 16 Ref Frames
Format settings, CABAC                   : Yes
Format settings, RefFrames               : 16 frames
Codec ID                                 : V_MPEG4/ISO/AVC
Duration                                 : 23 min 42 s
Bit rate                                 : 4 436 kb/s
Width                                    : 1 280 pixels
Height                                   : 720 pixels
Display aspect ratio                     : 16:9
Frame rate mode                          : Constant
Frame rate                               : 23.976 (24000/1001) FPS
Color space                              : YUV
Chroma subsampling                       : 4:2:0
Bit depth                                : 10 bits
Scan type                                : Progressive
Bits/(Pixel*Frame)                       : 0.201
Stream size                              : 752 MiB (85%)
Title                                    : SCY
Writing library                          : x264 core 152 r2851kMod ba24899
Encoding settings                        : cabac=1 / ref=16 / deblock=1:1:-1 / analyse=0x3:0x133 / me=umh / subme=11 / psy=1 / fade_compensate=0.00 / psy_rd=1.00:0.00 / mixed_ref=1 / me_range=32 / chroma_me=1 / trellis=2 / 8x8dct=1 / cqm=0 / deadzone=21,11 / fast_pskip=1 / chroma_qp_offset=-2 / threads=12 / lookahead_threads=3 / sliced_threads=0 / nr=0 / decimate=1 / interlaced=0 / bluray_compat=0 / constrained_intra=0 / bframes=16 / b_pyramid=2 / b_adapt=2 / b_bias=0 / direct=1 / weightb=1 / open_gop=0 / weightp=2 / keyint=250 / keyint_min=23 / scenecut=40 / intra_refresh=0 / rc=crf / mbtree=0 / crf=14.0000 / qcomp=0.72 / qpmin=0 / qpmax=81 / qpstep=4 / ip_ratio=1.40 / pb_ratio=1.30 / aq=3:0.85
Language                                 : Japanese
Default                                  : Yes
Forced                                   : No

Audio #1
ID                                       : 2
Format                                   : AAC
Format/Info                              : Advanced Audio Codec
Format profile                           : LC
Codec ID                                 : A_AAC-2
Duration                                 : 23 min 42 s
Bit rate                                 : 394 kb/s
Channel(s)                               : 6 channels
Channel positions                        : Front: L C R, Side: L R, LFE
Sampling rate                            : 48.0 kHz
Frame rate                               : 46.875 FPS (1024 SPF)
Compression mode                         : Lossy
Stream size                              : 66.7 MiB (8%)
Title                                    : Etzimal
Language                                 : English
Default                                  : Yes
Forced                                   : No

Audio #2
ID                                       : 3
Format                                   : AAC
Format/Info                              : Advanced Audio Codec
Format profile                           : LC
Codec ID                                 : A_AAC-2
Duration                                 : 23 min 42 s
Bit rate                                 : 167 kb/s
Channel(s)                               : 2 channels
Channel positions                        : Front: L R
Sampling rate                            : 48.0 kHz
Frame rate                               : 46.875 FPS (1024 SPF)
Compression mode                         : Lossy
Stream size                              : 28.3 MiB (3%)
Title                                    : SCY
Language                                 : Japanese
Default                                  : No
Forced                                   : No

Audio #3
ID                                       : 4
Format                                   : AAC
Format/Info                              : Advanced Audio Codec
Format profile                           : LC
Codec ID                                 : A_AAC-2
Duration                                 : 23 min 42 s
Bit rate                                 : 135 kb/s
Channel(s)                               : 2 channels
Channel positions                        : Front: L R
Sampling rate                            : 48.0 kHz
Frame rate                               : 46.875 FPS (1024 SPF)
Compression mode                         : Lossy
Stream size                              : 22.9 MiB (3%)
Title                                    : Etzimal (Commentary)
Language                                 : English
Default                                  : No
Forced                                   : No

Text #1
ID                                       : 5
Format                                   : ASS
Codec ID                                 : S_TEXT/ASS
Codec ID/Info                            : Advanced Sub Station Alpha
Duration                                 : 20 min 57 s
Bit rate                                 : 89 b/s
Count of elements                        : 133
Compression mode                         : Lossless
Stream size                              : 13.8 KiB (0%)
Title                                    : (CyC & coldhell Modified) Anime-Koi Signs/Songs
Language                                 : English
Default                                  : Yes
Forced                                   : Yes

Text #2
ID                                       : 6
Format                                   : ASS
Codec ID                                 : S_TEXT/ASS
Codec ID/Info                            : Advanced Sub Station Alpha
Duration                                 : 23 min 36 s
Bit rate                                 : 159 b/s
Count of elements                        : 401
Compression mode                         : Lossless
Stream size                              : 27.6 KiB (0%)
Title                                    : (CyC & coldhell Modified) Anime-Koi Full Subs
Language                                 : Japanese
Default                                  : No
Forced                                   : No

Menu
00:00:00.000                             : en:Intro
00:00:38.247                             : en:Part A
00:11:14.465                             : en:Part B
00:21:55.481                             : en:Ending
00:23:25.487                             : en:Preview
===
General
Unique ID                                : 203799926059018329620400396091942802740 (0x995270227A70877DB6F81E7C99849534)
Complete name                            : [CyC-SCY] Karneval 01 (BD 1080p Hi10 x264 FLAC) [Dual-Audio] [393C37D9].mkv
Format                                   : Matroska
Format version                           : Version 4 / Version 2
File size                                : 2.26 GiB
Duration                                 : 23 min 42 s
Overall bit rate mode                    : Variable
Overall bit rate                         : 13.6 Mb/s
Movie name                               : Rainbow Colored Flower Fuse
Encoded date                             : UTC 2018-08-14 01:56:04
Writing application                      : mkvmerge v9.7.1 ('Pandemonium') 64bit
Writing library                          : libebml v1.3.4 + libmatroska v1.4.5
Attachments                              : rounded-mgenplus-1pp-regular.ttf / Howie_s_Funhouse.ttf / JEEPNEY.TTF / TIMESS_.ttf / Vivaldii.TTF

Video
ID                                       : 1
Format                                   : AVC
Format/Info                              : Advanced Video Codec
Format profile                           : High 10@L5
Format settings                          : CABAC / 6 Ref Frames
Format settings, CABAC                   : Yes
Format settings, RefFrames               : 6 frames
Codec ID                                 : V_MPEG4/ISO/AVC
Duration                                 : 23 min 42 s
Bit rate                                 : 9 369 kb/s
Width                                    : 1 920 pixels
Height                                   : 1 080 pixels
Display aspect ratio                     : 16:9
Frame rate mode                          : Constant
Frame rate                               : 23.976 (24000/1001) FPS
Color space                              : YUV
Chroma subsampling                       : 4:2:0
Bit depth                                : 10 bits
Scan type                                : Progressive
Bits/(Pixel*Frame)                       : 0.188
Stream size                              : 1.55 GiB (69%)
Title                                    : SCY
Writing library                          : x264 core 152 r2851kMod ba24899
Encoding settings                        : cabac=1 / ref=6 / deblock=1:1:-1 / analyse=0x3:0x133 / me=umh / subme=11 / psy=1 / fade_compensate=0.00 / psy_rd=1.00:0.00 / mixed_ref=1 / me_range=32 / chroma_me=1 / trellis=2 / 8x8dct=1 / cqm=0 / deadzone=21,11 / fast_pskip=1 / chroma_qp_offset=-2 / threads=12 / lookahead_threads=3 / sliced_threads=0 / nr=0 / decimate=1 / interlaced=0 / bluray_compat=0 / constrained_intra=0 / bframes=16 / b_pyramid=2 / b_adapt=2 / b_bias=0 / direct=1 / weightb=1 / open_gop=0 / weightp=2 / keyint=250 / keyint_min=23 / scenecut=40 / intra_refresh=0 / rc=crf / mbtree=0 / crf=15.0000 / qcomp=0.72 / qpmin=0 / qpmax=81 / qpstep=4 / ip_ratio=1.40 / pb_ratio=1.30 / aq=3:0.85
Language                                 : Japanese
Default                                  : Yes
Forced                                   : No

Audio #1
ID                                       : 2
Format                                   : FLAC
Format/Info                              : Free Lossless Audio Codec
Codec ID                                 : A_FLAC
Duration                                 : 23 min 42 s
Bit rate mode                            : Variable
Bit rate                                 : 2 178 kb/s
Channel(s)                               : 6 channels
Sampling rate                            : 48.0 kHz
Frame rate                               : 11.719 FPS (4096 SPF)
Bit depth                                : 24 bits
Detected bit depth                       : 20 bits
Stream size                              : 369 MiB (16%)
Title                                    : Etzimal
Writing library                          : libFLAC 1.3.2 (UTC 2017-01-01)
Language                                 : English
Default                                  : Yes
Forced                                   : No

Audio #2
ID                                       : 3
Format                                   : FLAC
Format/Info                              : Free Lossless Audio Codec
Codec ID                                 : A_FLAC
Duration                                 : 23 min 42 s
Bit rate mode                            : Variable
Bit rate                                 : 1 427 kb/s
Channel(s)                               : 2 channels
Channel positions                        : Front: L R
Sampling rate                            : 48.0 kHz
Frame rate                               : 11.719 FPS (4096 SPF)
Bit depth                                : 24 bits
Stream size                              : 242 MiB (10%)
Title                                    : SCY
Writing library                          : libFLAC 1.3.2 (UTC 2017-01-01)
Language                                 : Japanese
Default                                  : No
Forced                                   : No

Audio #3
ID                                       : 4
Format                                   : FLAC
Format/Info                              : Free Lossless Audio Codec
Codec ID                                 : A_FLAC
Duration                                 : 23 min 42 s
Bit rate mode                            : Variable
Bit rate                                 : 602 kb/s
Channel(s)                               : 2 channels
Sampling rate                            : 48.0 kHz
Frame rate                               : 11.719 FPS (4096 SPF)
Bit depth                                : 16 bits
Stream size                              : 102 MiB (4%)
Title                                    : Etzimal (Commentary)
Writing library                          : libFLAC 1.3.2 (UTC 2017-01-01)
Language                                 : English
Default                                  : No
Forced                                   : No

Text #1
ID                                       : 5
Format                                   : ASS
Codec ID                                 : S_TEXT/ASS
Codec ID/Info                            : Advanced Sub Station Alpha
Duration                                 : 20 min 57 s
Bit rate                                 : 89 b/s
Count of elements                        : 133
Compression mode                         : Lossless
Stream size                              : 13.8 KiB (0%)
Title                                    : (CyC & coldhell Modified) Anime-Koi Signs/Songs
Language                                 : English
Default                                  : Yes
Forced                                   : Yes

Text #2
ID                                       : 6
Format                                   : ASS
Codec ID                                 : S_TEXT/ASS
Codec ID/Info                            : Advanced Sub Station Alpha
Duration                                 : 23 min 36 s
Bit rate                                 : 159 b/s
Count of elements                        : 401
Compression mode                         : Lossless
Stream size                              : 27.6 KiB (0%)
Title                                    : (CyC & coldhell Modified) Anime-Koi Full Subs
Language                                 : Japanese
Default                                  : No
Forced                                   : No

Menu
00:00:00.000                             : en:Intro
00:00:38.247                             : en:Part A
00:11:14.465                             : en:Part B
00:21:55.481                             : en:Ending
00:23:25.487                             : en:Preview